<?xml version="1.0" encoding="UTF-8" standalone="no"?>
<!DOCTYPE svg PUBLIC "-//W3C//DTD SVG 1.1//EN" "http://www.w3.org/Graphics/SVG/1.1/DTD/svg11.dtd">
<svg width="100%" height="100%" viewBox="0 0 60 60" version="1.1" xmlns="http://www.w3.org/2000/svg" xmlns:xlink="http://www.w3.org/1999/xlink" xml:space="preserve" xmlns:serif="http://www.serif.com/" style="fill-rule:evenodd;clip-rule:evenodd;stroke-linecap:round;stroke-linejoin:round;stroke-miterlimit:1.5;">
    <g id="Cities-1" serif:id="Cities 1">
        <circle cx="48.361" cy="34.595" r="0.901" style="fill:rgb(255,242,135);"/>
        <circle cx="31.257" cy="46.407" r="1.257" style="fill:rgb(255,242,135);"/>
        <circle cx="42.556" cy="46.874" r="1.724" style="fill:rgb(255,242,135);"/>
        <circle cx="46.354" cy="31.107" r="1.107" style="fill:rgb(255,242,135);"/>
        <circle cx="40.074" cy="50.937" r="0.758" style="fill:rgb(255,242,135);"/>
        <circle cx="46.109" cy="46.012" r="0.862" style="fill:rgb(255,242,135);"/>
        <circle cx="41.315" cy="42.413" r="1.241" style="fill:rgb(255,242,135);"/>
        <path d="M46.861,31.375L48.37,34.66" style="fill:none;stroke:rgb(255,241,135);stroke-width:1px;"/>
        <path d="M41.503,42.204L42.648,47.214" style="fill:none;stroke:rgb(255,241,135);stroke-width:1px;"/>
        <path d="M46.266,46.012L42.648,47.214" style="fill:none;stroke:rgb(255,241,135);stroke-width:1px;"/>
        <path d="M42.648,47.214L40.238,51.054" style="fill:none;stroke:rgb(255,241,135);stroke-width:1px;"/>
        <path d="M42.076,42.204L46.266,46.012" style="fill:none;stroke:rgb(255,241,135);stroke-width:1px;"/>
        <path d="M46.266,46.012L48.885,44.709" style="fill:none;stroke:rgb(255,241,135);stroke-width:1px;"/>
        <path d="M46.266,46.012L47.576,47.214" style="fill:none;stroke:rgb(255,241,135);stroke-width:1px;"/>
        <path d="M41.503,42.204L41.443,35.921" style="fill:none;stroke:rgb(255,241,135);stroke-width:1px;"/>
        <path d="M41.503,42.204L38.095,40.094" style="fill:none;stroke:rgb(255,241,135);stroke-width:1px;"/>
        <path d="M31.53,46.613L34.647,47.214" style="fill:none;stroke:rgb(255,241,135);stroke-width:1px;"/>
        <path d="M31.53,46.613L31.53,41.149" style="fill:none;stroke:rgb(255,241,135);stroke-width:1px;"/>
        <path d="M33.089,47.214L33.089,51.002" style="fill:none;stroke:rgb(255,241,135);stroke-width:1px;"/>
        <path d="M30.051,52.684L33.089,50.146" style="fill:none;stroke:rgb(255,241,135);stroke-width:1px;"/>
        <path d="M41.837,36.179L42.968,32.237" style="fill:none;stroke:rgb(255,241,135);stroke-width:1px;"/>
        <path d="M47.559,47.324L46.527,51.773" style="fill:none;stroke:rgb(255,241,135);stroke-width:1px;"/>
        <path d="M46.527,49.549L42.402,47.324" style="fill:none;stroke:rgb(255,241,135);stroke-width:1px;"/>
        <path d="M32.132,46.332L41.837,43.053" style="fill:none;stroke:rgb(255,241,135);stroke-width:1px;"/>
        <path d="M39.296,51.773L42.402,52.766" style="fill:none;stroke:rgb(255,241,135);stroke-width:1px;"/>
        <path d="M42.402,32.694L46.527,30.897" style="fill:none;stroke:rgb(255,241,135);stroke-width:1px;"/>
    </g>
</svg>
