<?xml version="1.0" encoding="UTF-8" standalone="no"?>
<!DOCTYPE svg PUBLIC "-//W3C//DTD SVG 1.1//EN" "http://www.w3.org/Graphics/SVG/1.1/DTD/svg11.dtd">
<svg width="100%" height="100%" viewBox="0 0 60 60" version="1.1" xmlns="http://www.w3.org/2000/svg" xmlns:xlink="http://www.w3.org/1999/xlink" xml:space="preserve" xmlns:serif="http://www.serif.com/" style="fill-rule:evenodd;clip-rule:evenodd;stroke-linecap:round;stroke-linejoin:round;stroke-miterlimit:1.5;">
    <g id="Cities-2" serif:id="Cities 2">
        <circle cx="50.669" cy="26.55" r="1.407" style="fill:rgb(255,242,135);"/>
        <circle cx="17.406" cy="49.046" r="1.133" style="fill:rgb(255,242,135);"/>
        <circle cx="23.409" cy="53.24" r="0.683" style="fill:rgb(255,242,135);"/>
        <circle cx="26.817" cy="55.806" r="1.067" style="fill:rgb(255,242,135);"/>
        <path d="M17.406,49.046C20.944,51.706 22.528,52.51 23.409,53.24" style="fill:none;stroke:rgb(255,241,135);stroke-width:1px;"/>
        <path d="M31.458,46.012L26.817,55.806" style="fill:none;stroke:rgb(255,241,135);stroke-width:1px;"/>
        <path d="M23.409,53.24L26.817,55.806" style="fill:none;stroke:rgb(255,241,135);stroke-width:1px;"/>
        <path d="M46.861,31.375L50.909,26.326" style="fill:none;stroke:rgb(255,241,135);stroke-width:1px;"/>
        <path d="M46.861,31.375L45.672,27.339" style="fill:none;stroke:rgb(255,241,135);stroke-width:1px;"/>
        <path d="M28.571,51.002L31.53,54.366" style="fill:none;stroke:rgb(255,241,135);stroke-width:1px;"/>
        <path d="M23.406,52.684L28.571,51.002" style="fill:none;stroke:rgb(255,241,135);stroke-width:1px;"/>
        <path d="M17.644,49.108L22.099,49.108" style="fill:none;stroke:rgb(255,241,135);stroke-width:1px;"/>
        <path d="M19.872,49.108L21.25,46.613" style="fill:none;stroke:rgb(255,241,135);stroke-width:1px;"/>
        <path d="M20.561,51.415L18.866,52.684" style="fill:none;stroke:rgb(255,241,135);stroke-width:1px;"/>
        <path d="M20.561,54.366L18.866,52.684" style="fill:none;stroke:rgb(255,241,135);stroke-width:1px;"/>
        <path d="M50.786,27.012L54.188,26.24" style="fill:none;stroke:rgb(255,241,135);stroke-width:1px;"/>
        <path d="M50.786,27.012L54.188,32.237" style="fill:none;stroke:rgb(255,241,135);stroke-width:1px;"/>
        <path d="M52.487,31.525L52.732,30" style="fill:none;stroke:rgb(255,241,135);stroke-width:1px;"/>
        <path d="M50.786,40.832L52.487,31.525" style="fill:none;stroke:rgb(255,241,135);stroke-width:1px;"/>
        <path d="M54.188,32.237L55.971,33.739" style="fill:none;stroke:rgb(255,241,135);stroke-width:1px;"/>
        <path d="M40.282,50.931L31.303,54.601" style="fill:none;stroke:rgb(255,241,135);stroke-width:1px;"/>
        <path d="M33.568,54.601L32.132,56.822" style="fill:none;stroke:rgb(255,241,135);stroke-width:1px;"/>
        <path d="M50.981,26.463L51.178,19.86" style="fill:none;stroke:rgb(255,241,135);stroke-width:1px;"/>
        <path d="M51.178,23.162L50.981,24.308" style="fill:none;stroke:rgb(255,241,135);stroke-width:1px;"/>
        <path d="M54.045,21.826L51.178,23.162" style="fill:none;stroke:rgb(255,241,135);stroke-width:1px;"/>
        <path d="M54.045,21.826L51.178,21.826" style="fill:none;stroke:rgb(255,241,135);stroke-width:1px;"/>
        <path d="M48.533,19.86L51.178,21.826" style="fill:none;stroke:rgb(255,241,135);stroke-width:1px;"/>
    </g>
</svg>
