<?xml version="1.0" encoding="UTF-8" standalone="no"?>
<!DOCTYPE svg PUBLIC "-//W3C//DTD SVG 1.1//EN" "http://www.w3.org/Graphics/SVG/1.1/DTD/svg11.dtd">
<svg width="100%" height="100%" viewBox="0 0 60 60" version="1.1" xmlns="http://www.w3.org/2000/svg" xmlns:xlink="http://www.w3.org/1999/xlink" xml:space="preserve" xmlns:serif="http://www.serif.com/" style="fill-rule:evenodd;clip-rule:evenodd;stroke-linejoin:round;stroke-miterlimit:2;">
    <path id="Clouds" d="M18.574,51.289C17.645,51.253 16.754,51.682 16.372,52.68C15.767,54.26 16.783,55.577 18.395,55.892C18.511,56.177 18.646,56.44 18.807,56.659C19.231,57.234 19.797,57.618 20.573,57.729C21.255,57.826 21.911,57.709 22.561,57.5C22.89,57.394 23.2,57.168 23.564,57.216C23.981,57.272 24.247,57.581 24.549,57.807C25.067,58.195 25.599,58.542 26.202,58.743C26.544,58.857 26.991,58.91 27.515,58.689C27.659,58.628 27.865,58.518 28.089,58.325C28.147,58.275 28.273,58.159 28.386,58.055L28.61,58.045C29.38,58.116 30.159,58.215 30.907,58.378C31.652,58.54 32.761,58.822 33.558,58.59C34.062,58.443 34.46,58.139 34.738,57.715C34.818,57.69 34.898,57.661 34.977,57.631C35.943,57.259 36.311,56.648 36.471,56.188C36.679,55.591 36.613,54.997 36.316,54.469C36.103,54.09 35.745,53.732 35.257,53.508C34.475,53.15 33.3,53.125 32.358,54.006C32.339,54.024 32.321,54.042 32.303,54.061C32.159,53.998 32.019,53.927 31.884,53.854C31.584,53.478 31.185,53.186 30.775,53.042C29.716,52.668 28.884,53.122 28.448,53.703C28.165,53.582 27.851,53.533 27.534,53.57C27.223,53.605 26.933,53.719 26.687,53.895C26.681,53.752 26.661,53.616 26.626,53.489C26.465,52.911 26.108,52.456 25.573,52.174C25.207,51.981 24.71,51.84 24.04,51.974C23.236,52.135 22.722,52.574 22.43,53.166C22.388,52.869 22.282,52.571 22.109,52.283C21.749,51.683 20.703,51.047 19.698,51.045C19.284,51.044 18.904,51.133 18.574,51.289ZM51.201,31.993L49.553,35.475C49.376,35.848 49.334,36.266 49.426,36.661C49.36,36.826 49.304,36.994 49.258,37.165C49.16,37.525 49.116,37.945 49.137,38.372C47.87,38.879 46.61,39.883 46.179,41.184C45.6,41.899 45.309,42.783 45.479,43.808C45.535,44.144 45.641,44.477 45.789,44.793C45.69,44.915 45.604,45.039 45.536,45.162C45.267,45.649 45.171,46.156 45.232,46.659C45.291,47.141 45.49,47.65 45.97,48.13C46.711,48.871 47.748,49.07 48.907,48.587C50.082,48.097 51.5,46.619 51.843,46.144C52.683,44.98 52.752,44.077 52.636,43.169C52.604,42.921 52.535,42.672 52.48,42.397C52.7,42.229 52.913,42.04 53.017,41.88C53.678,40.863 53.866,39.837 53.79,38.628C53.774,38.366 53.657,37.611 53.477,36.895C54.132,36.012 54.904,35.162 55.304,34.163C55.545,33.559 55.706,32.904 55.637,32.264C55.928,31.949 56.311,31.405 56.029,30.434C55.627,29.053 54.293,28.492 52.972,28.879C51.772,29.231 50.945,30.376 51.092,31.534C51.112,31.694 51.149,31.847 51.201,31.993ZM3.465,33.337C1.578,34.913 1.456,37.176 2.406,39.102C3.184,40.681 4.725,41.947 6.381,42.293C6.38,42.293 9.808,44.891 9.808,44.891C9.865,44.986 9.933,45.083 10.011,45.181C10.65,45.979 11.52,46.216 12.41,46.005C13.572,45.825 14.809,44.888 14.809,43.505C14.809,43.161 14.739,42.853 14.613,42.582C14.548,42.318 14.434,42.055 14.267,41.803C13.855,41.187 13.245,40.816 12.537,40.681L12.529,40.68C12.445,40.535 12.352,40.396 12.251,40.262C12.255,39.84 12.172,39.417 11.993,39.012L11.999,38.993C12.077,38.75 12.13,38.505 12.159,38.263C13.934,36.458 13.318,33.842 11.838,32.145C11.799,31.451 11.619,30.712 11.293,30.093C10.856,29.262 10.18,28.643 9.355,28.37C8.489,28.083 6.856,28.179 5.58,28.737C4.488,29.214 3.701,30.013 3.422,30.856C3.15,31.677 3.205,32.537 3.465,33.337ZM13.083,43.531L13.083,43.531L13.083,43.531L13.083,43.531ZM27.944,38.222C27.603,38.224 27.23,38.318 26.867,38.591C26.711,38.708 26.584,38.828 26.478,38.947L26.478,38.947L26.38,39.066L26.354,39.101L26.344,39.114L26.293,39.185L26.293,39.185L26.293,39.185C25.701,40.054 25.767,40.944 26.348,41.755C26.634,42.154 27.128,42.546 27.659,42.797C28.237,43.069 28.841,43.16 29.185,43.137C29.44,43.12 29.694,43.08 29.943,43.022C30.177,42.968 30.407,42.892 30.628,42.8L30.718,42.761C31.369,42.78 32.068,42.645 32.62,42.364C33.493,41.92 34.027,41.172 34.126,40.31C34.15,40.102 34.144,39.89 34.105,39.678C34.431,39.153 34.474,38.479 34.18,37.9C33.782,37.117 32.88,36.731 32.038,36.986L27.944,38.222ZM27.573,41.945C27.573,41.945 27.519,41.935 27.519,41.935L27.573,41.945ZM27.388,41.907L27.444,41.921L27.388,41.907ZM27.262,41.87L27.318,41.889L27.262,41.87ZM27.14,41.824L27.196,41.847L27.14,41.824ZM27.023,41.77L27.077,41.797L27.023,41.77ZM26.91,41.708L26.962,41.739L26.91,41.708ZM26.802,41.639L26.852,41.673L26.802,41.639ZM26.699,41.562L26.746,41.6L26.699,41.562ZM26.601,41.477L26.646,41.519L26.601,41.477ZM26.51,41.386L26.552,41.431L26.51,41.386ZM26.425,41.287L26.464,41.336L26.425,41.287ZM26.346,41.183L26.383,41.235L26.346,41.183ZM26.276,41.072L26.308,41.128L26.276,41.072ZM26.213,40.956L26.241,41.014L26.213,40.956ZM26.158,40.835L26.182,40.895L26.158,40.835ZM26.113,40.711L26.132,40.771L26.113,40.711ZM26.076,40.584L26.092,40.646L26.076,40.584ZM26.05,40.456L26.06,40.519L26.05,40.456ZM26.032,40.328L26.038,40.391L26.032,40.328ZM26.024,40.199L26.026,40.262L26.024,40.199ZM26.025,40.07L26.022,40.133L26.025,40.07ZM26.035,39.942L26.028,40.005L26.035,39.942ZM26.055,39.816L26.043,39.877L26.055,39.816ZM26.376,39.253C26.287,39.418 26.226,39.595 26.193,39.775C26.221,39.608 26.279,39.432 26.376,39.253ZM26.083,39.69L26.067,39.751L26.083,39.69ZM26.12,39.567L26.099,39.627L26.12,39.567ZM26.166,39.446L26.141,39.505L26.166,39.446ZM26.22,39.328L26.191,39.386L26.22,39.328ZM26.284,39.214L26.25,39.27L26.284,39.214ZM26.439,39.144L26.439,39.144L26.439,39.144ZM26.51,39.04L26.502,39.045L26.492,39.059L26.439,39.144L26.484,39.076L26.51,39.04ZM26.435,38.999L26.394,39.05L26.435,38.999ZM7.083,37.792L7.083,37.792C7.083,37.792 7.083,37.792 7.083,37.792ZM9.283,36.721L9.29,36.737L9.311,36.672L9.283,36.721ZM18.219,26.785C17.838,27.084 17.518,27.529 17.311,28.083C17.085,28.69 17.012,29.495 16.943,29.925C16.57,32.241 17.408,34.597 19.681,35.588C19.91,35.687 20.157,35.739 20.406,35.739C20.406,35.739 20.69,35.776 21.128,35.589C21.188,35.563 21.556,35.406 21.556,35.406L21.555,35.407C22.08,35.188 22.486,34.729 22.623,34.149L22.632,34.105C22.659,34.079 22.685,34.052 22.711,34.024C23.041,33.667 23.484,33.012 23.169,31.677C23.126,31.494 23.041,31.258 22.924,31.006C23.388,30.108 23.808,28.307 23.537,27.041C23.305,25.961 22.677,25.205 21.8,24.875C21.206,24.652 20.588,24.683 19.995,24.952C19.374,25.235 18.762,25.912 18.486,26.325C18.405,26.447 18.313,26.603 18.219,26.785ZM8.965,33.822L8.837,34.059L8.843,34.074L8.953,34.047C9.006,34.038 9.059,34.028 9.112,34.018L9.207,34.006L9.156,33.854L9.079,33.602L8.965,33.822ZM9.648,33.62C9.611,33.752 9.576,33.875 9.544,33.985L9.596,33.984L9.659,33.987L9.648,33.62ZM55.404,31.445L55.405,31.446L55.408,31.426L55.404,31.445ZM55.422,31.324L55.41,31.414L55.42,31.345L55.422,31.324ZM55.431,31.227L55.423,31.318L55.43,31.237L55.431,31.227ZM2.657,19.539C2.241,19.74 1.91,20.095 1.744,20.543C1.604,20.921 1.464,21.301 1.406,21.704C1.194,23.186 1.827,23.88 2.242,24.184C2.511,24.381 2.816,24.514 3.155,24.561C3.275,24.675 3.402,24.77 3.532,24.846C4.086,25.175 4.793,25.331 5.663,24.828C6.09,24.581 6.398,24.171 6.516,23.693C6.629,23.235 6.56,22.751 6.323,22.345C6.696,21.619 6.92,20.817 6.858,20.19C6.772,19.311 6.342,18.591 5.47,18.155C4.699,17.77 4.048,17.905 3.489,18.293C3.251,18.459 3.01,18.706 2.832,19.055C2.765,19.186 2.706,19.358 2.657,19.539ZM30.93,17.59C29.336,17.208 30.194,20.202 30.443,20.984L30.504,21.167L29.876,21.055C29.318,20.849 28.881,20.375 28.738,19.77C28.545,18.951 28.94,18.107 29.693,17.731C28.868,18.143 28.738,18.761 28.685,19.091C28.607,19.582 28.704,20.059 29.047,20.499C29.157,20.641 29.587,21.031 30.211,21.18C30.205,21.178 33.402,22.371 33.402,22.371C33.696,22.481 34.014,22.513 34.324,22.463C34.882,22.373 34.846,22.38 35.415,22.304C35.636,22.275 36.161,22.229 36.33,22.182C36.573,22.115 36.749,22.019 36.865,21.943C37.289,21.669 37.487,21.32 37.593,21.025C37.743,20.605 37.745,20.176 37.57,19.735C37.492,19.542 37.335,19.136 36.817,18.841C36.722,18.523 36.533,18.217 36.197,17.944C35.959,17.751 35.5,17.504 34.869,17.48C34.723,17.474 34.56,17.482 34.39,17.502C34.238,17.353 34.036,17.222 33.775,17.117C33.614,17.052 32.96,16.855 32.431,16.887C31.851,16.921 31.364,17.158 31.021,17.501L30.936,17.589L30.93,17.59ZM4.629,21.477C4.495,21.471 4.354,21.486 4.204,21.531C4.371,21.571 4.531,21.58 4.682,21.572L4.692,21.571L4.697,21.558L4.655,21.506L4.629,21.477ZM30.692,21.238L30.702,21.237L30.692,21.237L30.692,21.238ZM30.69,21.237L30.618,21.236C30.643,21.237 30.668,21.238 30.692,21.238L30.69,21.237ZM18.359,6.562C17.63,7.017 16.877,7.794 16.408,8.615C16.358,8.655 16.309,8.696 16.261,8.738C16.124,8.858 15.992,8.983 15.867,9.115C15.747,9.242 15.633,9.374 15.526,9.513C15.431,9.637 15.341,9.765 15.259,9.899C14.769,10.057 14.279,10.31 13.823,10.65C13.675,10.761 13.53,10.881 13.392,11.007C12.372,11.31 11.335,12.073 10.563,13.063C9.614,14.278 9.128,15.762 9.21,16.695C9.207,16.664 9.207,16.668 9.207,16.668C8.986,17.204 8.966,17.851 9.307,18.626C9.706,19.536 10.52,20.094 11.512,20.308C11.577,20.39 11.65,20.47 11.728,20.549C12.137,20.958 12.683,21.188 13.323,21.187C13.838,21.186 14.489,20.954 14.81,20.826C15.363,20.605 17.142,19.651 17.913,18.686C18.601,17.826 18.752,16.92 18.431,16.101C18.572,16.019 18.709,15.931 18.844,15.837C19.821,15.147 20.922,14.006 21.08,12.719C21.111,12.475 21.087,12.214 21.036,11.962C21.192,11.828 21.333,11.688 21.453,11.545C21.52,11.466 21.582,11.385 21.639,11.303C22.307,10.959 22.979,10.551 23.416,10.114C24.005,9.527 24.292,8.854 24.311,8.182C24.329,7.516 24.117,6.746 23.288,5.996C22.882,5.627 22.187,5.333 21.316,5.372C20.329,5.416 19.082,5.933 18.359,6.562ZM29.876,21.055C30.026,21.111 30.184,21.147 30.348,21.161L29.876,21.055ZM30.935,20.982L30.836,21.089L31.05,21.038L30.984,20.963L30.969,20.944L30.935,20.982ZM31.92,19.579C31.857,19.712 31.784,19.844 31.706,19.971C31.771,20.053 31.858,20.143 31.974,20.231C31.915,20.006 31.901,19.788 31.92,19.579ZM37.058,7.073C35.636,7.282 34.359,8.155 33.746,9.609C33.245,10.798 33.386,11.715 33.739,12.414C34.091,13.11 34.728,13.653 35.572,13.977C36.233,14.231 37.05,14.342 37.791,14.366C38.486,15.257 39.479,16.253 40.091,16.64C40.345,16.8 40.659,16.943 41.013,17.056C41.508,18.028 42.634,18.683 44.041,18.75C44.75,18.784 45.505,18.66 46.185,18.442C46.472,19.431 47.261,20.077 48.465,20.203C49.223,20.282 50.237,20.095 51.023,19.813C51.67,19.582 52.172,19.273 52.402,19.067C53.168,18.382 53.304,17.66 53.238,17.029C53.169,16.36 52.733,15.653 52.085,15.149C51.786,14.916 51.47,14.711 51.142,14.538C51.123,14.226 51.013,13.91 50.824,13.595C50.677,13.35 50.412,13.054 50.015,12.821C50.208,12.576 50.336,12.279 50.381,11.957C50.473,11.287 50.324,10.691 49.954,10.236C49.892,9.772 49.696,9.287 49.28,8.813C48.812,8.281 48.109,7.924 47.27,7.837C46.622,7.771 45.882,7.874 45.223,8.108C44.55,8.084 43.859,8.234 43.221,8.52C42.826,7.675 41.933,6.98 40.728,6.708C39.548,6.442 38.096,6.593 37.058,7.073ZM32.14,18.681C32.141,18.704 32.141,18.728 32.142,18.751L32.14,18.813L32.177,18.744C32.165,18.713 32.152,18.682 32.138,18.651L32.14,18.681ZM30.741,17.614C30.734,17.616 30.727,17.618 30.72,17.62L30.778,17.612L30.766,17.611L30.741,17.614ZM30.766,17.611L30.766,17.611L30.766,17.611L30.766,17.611ZM16.631,8.452L16.607,8.475L16.61,8.473L16.641,8.444L16.631,8.452ZM16.687,8.405L16.662,8.426L16.697,8.397L16.687,8.405ZM16.74,8.364L16.732,8.37L16.746,8.359L16.74,8.364ZM16.809,8.314L16.802,8.319L16.81,8.313L16.809,8.314ZM30.083,3.045C29.562,3.04 29.056,3.08 28.717,3.193C27.864,3.477 27.652,4.053 27.554,4.341C27.34,4.969 27.374,5.679 28.078,6.297C28.208,6.411 28.458,6.599 28.846,6.702C28.991,6.74 29.234,6.77 29.446,6.781C29.875,6.914 30.301,7.092 30.747,7.092C30.855,7.092 30.956,7.085 31.052,7.073L31.213,7.103C31.973,7.551 32.592,7.301 32.731,7.253C33.439,7.01 34.001,6.485 33.962,5.455C33.955,5.265 33.912,4.869 33.614,4.428C33.357,4.049 32.628,3.359 31.753,3.192C31.424,3.129 30.932,3.073 30.421,3.053C30.348,3.043 30.275,3.039 30.201,3.039C30.165,3.039 30.125,3.041 30.083,3.045ZM33.156,4.036L33.243,4.116C33.214,4.087 33.185,4.061 33.156,4.036Z" style="fill:rgb(226,240,249);"/>
</svg>
