<?xml version="1.0" encoding="UTF-8" standalone="no"?>
<!DOCTYPE svg PUBLIC "-//W3C//DTD SVG 1.1//EN" "http://www.w3.org/Graphics/SVG/1.1/DTD/svg11.dtd">
<svg width="100%" height="100%" viewBox="0 0 60 60" version="1.1" xmlns="http://www.w3.org/2000/svg" xmlns:xlink="http://www.w3.org/1999/xlink" xml:space="preserve" xmlns:serif="http://www.serif.com/" style="fill-rule:evenodd;clip-rule:evenodd;stroke-linejoin:round;stroke-miterlimit:2;">
    <path id="CO2-clouds" serif:id="CO2 clouds" d="M42.853,47.602C42.197,47.725 41.481,47.926 40.96,48.222C40.379,48.552 39.969,48.998 39.739,49.495C39.641,49.704 39.579,49.904 39.547,50.096C38.687,50.305 37.942,50.662 37.399,51.202C36.826,51.307 36.192,51.44 35.809,51.559C35.462,51.668 35.21,51.801 35.065,51.898C34.353,52.38 34.225,53.012 34.222,53.447C34.22,53.958 34.342,54.76 35.418,55.194C35.567,55.254 35.722,55.293 35.879,55.312C36.27,55.58 36.772,55.752 37.367,55.771C38.14,55.795 39.163,55.508 39.951,55.102C40.673,55.016 41.434,54.828 41.849,54.664C42.194,54.527 42.433,54.361 42.572,54.241C42.892,53.964 43.062,53.68 43.152,53.42L43.541,53.311L43.594,53.295C43.756,53.276 45.717,53.038 46.422,52.721C47.134,52.399 47.541,51.895 47.725,51.402C47.754,51.323 47.78,51.242 47.8,51.158C48.092,50.841 48.287,50.501 48.372,50.188C48.576,49.436 48.513,48.509 47.431,47.666C47.218,47.501 46.808,47.282 46.245,47.171C45.582,47.041 44.576,47.017 43.869,47.174C43.466,47.263 43.129,47.414 42.853,47.602ZM38.383,54.627L38.389,54.639L38.389,54.648L38.39,54.65L38.391,54.643L38.389,54.639L38.389,54.631L38.382,54.617L38.383,54.627ZM37.326,52.168L37.194,52.339L37.202,52.382L37.222,52.47C37.419,52.764 37.647,53.173 37.851,53.56L37.851,53.567C38.074,53.99 38.267,54.385 38.357,54.572L38.343,54.59L38.383,54.642L38.384,54.643L38.384,54.643L38.389,54.649L38.389,54.648L38.384,54.643L38.383,54.627L38.357,54.572L38.359,54.569C38.269,54.383 38.075,53.985 37.851,53.56C37.859,53.41 37.846,53.262 37.818,53.116C37.766,52.851 37.666,52.477 37.326,52.168ZM37.802,53.887L37.798,53.9C38.02,54.217 38.232,54.47 38.34,54.593L38.343,54.59C38.238,54.452 38.03,54.167 37.818,53.816L37.802,53.887ZM38.392,54.515L38.348,54.196L38.376,54.546L38.391,54.527L38.392,54.515ZM37.054,52.245C37.061,52.32 37.074,52.395 37.091,52.472L36.625,53.075C36.74,53.64 37.206,54.046 37.634,54.308C37.709,54.171 37.763,54.035 37.798,53.9C37.508,53.485 37.201,52.961 37.091,52.472L37.159,52.384L37.11,52.317L37.054,52.245ZM38.33,53.668L38.244,52.62L38.216,52.588L38.302,53.639L38.325,53.664L38.33,53.668ZM8.282,48.772C8.302,48.917 8.336,49.062 8.383,49.204C8.558,49.733 8.911,50.283 9.675,50.72C9.856,50.823 10.077,50.906 10.324,50.959L10.412,51.038C10.445,51.066 10.479,51.093 10.512,51.121L10.537,51.141C10.699,51.655 11.133,52.363 12.3,52.363C12.434,52.363 12.612,52.364 12.798,52.38C12.799,52.38 13.099,52.842 13.099,52.842C13.479,53.427 14.159,53.742 14.851,53.654C15.542,53.565 16.121,53.089 16.342,52.428C16.603,51.645 16.496,51.002 16.235,50.47C16.113,50.221 15.942,49.989 15.728,49.781C15.728,49.574 15.698,49.358 15.635,49.136C15.451,48.49 15.033,47.973 14.398,47.624C14.204,47.517 13.976,47.43 13.729,47.363C13.604,47.196 13.438,47.032 13.215,46.889C13.147,46.766 13.07,46.646 12.983,46.532C12.712,46.17 12.214,45.689 11.619,45.257C11.483,44.762 11.146,44.368 10.674,44.061C10.288,43.808 9.706,43.636 9.14,43.61C8.609,43.586 8.114,43.687 7.875,43.776C6.217,44.398 5.887,45.6 6.011,46.501C6.118,47.287 6.716,48.259 8.057,48.706C8.132,48.73 8.206,48.752 8.282,48.772ZM38.098,52.464C38.009,52.877 38.085,53.224 38.217,53.518C38.228,53.543 38.244,53.569 38.265,53.595L38.111,52.475L38.098,52.464ZM21.91,52.181C22.039,52.279 22.191,52.373 22.368,52.461C23.673,53.114 25.324,53.226 26.823,53.11C27.514,53.293 28.352,53.283 29.091,53.06C30.402,52.898 31.732,52.428 32.464,52.076C33.234,51.707 33.641,50.851 33.443,50.02C33.246,49.19 32.496,48.61 31.642,48.627L30.586,48.648C30.338,48.426 29.996,48.221 29.537,48.099C28.533,47.831 26.312,47.936 25.463,48.289C25.304,48.355 25.164,48.43 25.039,48.513C24.739,48.454 24.44,48.388 24.14,48.313C23.977,48.063 23.734,47.817 23.369,47.604C22.968,47.37 22.377,47.226 21.688,47.303C21.022,47.376 20.164,47.683 19.777,47.812C18.984,48.076 18.721,48.587 18.592,48.918C18.385,49.447 18.386,50.024 18.771,50.611C18.897,50.803 19.142,51.088 19.565,51.307C19.803,51.43 20.305,51.582 20.528,51.686C21.049,51.928 21.472,52.087 21.91,52.181ZM36.841,52.064C36.808,52.057 36.782,52.07 36.764,52.108L36.722,52.206L36.721,52.21C36.679,52.318 36.648,52.429 36.628,52.542L36.623,52.56L36.608,52.666L36.599,52.768L36.598,52.801L36.6,52.869L36.602,52.762C36.605,52.725 36.609,52.688 36.612,52.65L36.628,52.542C36.676,52.372 36.748,52.211 36.841,52.064ZM36.712,52.233C36.672,52.34 36.642,52.449 36.623,52.56L36.619,52.574L36.615,52.589C36.633,52.475 36.665,52.356 36.712,52.233L36.715,52.225L36.718,52.218L36.712,52.233ZM37.161,52.382L37.159,52.384L37.173,52.404L37.224,52.479L37.222,52.47L37.175,52.401L37.161,52.382ZM36.753,52.133L36.727,52.193L36.714,52.226L36.718,52.217L36.729,52.189L36.751,52.137L36.759,52.119L36.753,52.133ZM36.721,52.209L36.721,52.21L36.721,52.209ZM36.764,52.106L36.763,52.109L36.763,52.11L36.751,52.137L36.763,52.109L36.764,52.108L36.765,52.106L36.764,52.106ZM37.925,51.117C37.698,51.178 37.53,51.273 37.411,51.394C37.586,51.347 37.765,51.306 37.946,51.27L37.925,51.117ZM38.103,51.212L38.105,51.239L38.117,51.237L38.11,51.222L38.103,51.212ZM43.284,30.831C43.027,31.105 42.685,31.298 42.3,31.37C41.572,31.507 40.835,31.188 40.436,30.565C40.436,30.565 36.99,25.178 36.991,25.179C36.802,25.03 36.691,24.892 36.657,24.845C36.195,24.201 36.207,23.566 36.513,22.963C36.572,22.845 36.884,21.998 38.183,21.956C37.193,21.988 36.413,22.809 36.429,23.799C36.434,24.149 36.539,24.474 36.716,24.748L37.761,25.32C37.758,25.268 37.757,25.216 37.757,25.163C37.757,24.522 38.017,24.121 38.284,23.844C38.375,23.75 38.473,23.666 38.581,23.593C38.754,22.926 39,22.358 39.329,22.404C39.159,22.248 38.907,22.085 38.559,22.03L38.651,22.047C38.621,22.04 38.59,22.035 38.559,22.03C38.614,22.038 38.684,22.047 38.749,22.054C39.274,22.11 40.625,21.94 41.575,22.104C42.542,22.271 43.255,22.736 43.642,23.317C44.25,24.229 44.247,25.058 44.012,25.742C43.927,25.991 43.797,26.231 43.629,26.453C43.678,26.801 43.666,27.148 43.612,27.495C43.591,27.63 43.552,27.764 43.51,27.897C43.746,28.335 43.829,28.835 43.814,29.314L44.401,29.833C44.624,29.687 44.863,29.599 45.111,29.559C45.458,29.399 45.82,29.359 46.192,29.431C46.656,28.584 47.208,27.834 47.322,28.81C47.331,28.886 47.376,29.275 47.396,29.479C47.42,29.721 47.504,30.106 47.57,30.503C47.588,30.539 47.606,30.578 47.623,30.617C47.925,31.328 48.017,32.261 47.883,33.213C47.828,33.601 47.736,33.99 47.617,34.363C47.965,34.959 48.054,35.815 47.34,36.656C46.949,37.117 46.131,37.591 45.698,37.682C45.567,37.709 45.442,37.723 45.324,37.727C45.121,37.89 44.925,38.063 44.708,38.207C43.925,38.726 43.516,38.879 43.425,38.902C43.257,38.946 43.104,38.966 42.964,38.968C43.028,39.011 43.085,39.056 43.136,39.101C43.657,39.238 44.138,39.524 44.517,39.997C45.172,40.816 45.184,41.68 44.754,42.518C44.362,43.283 43.212,44.06 42.739,44.283C42.715,44.295 42.691,44.306 42.669,44.316C41.999,45.593 40.799,46.388 39.497,47.266C39.204,47.463 38.164,48.238 37.556,48.358C36.919,48.484 36.381,48.336 35.96,48.051C35.865,47.986 35.771,47.912 35.681,47.827C34.958,47.561 34.48,46.867 34.493,46.094C34.505,45.386 34.927,44.756 35.562,44.47C35.296,44.142 35.191,43.757 35.187,43.356C35.184,43.022 35.22,42.441 35.874,41.899C36.482,41.395 37.17,41.23 37.91,41.285C38.047,41.295 38.187,41.324 38.327,41.356C38.635,40.774 39.193,40.183 40.033,39.704L40.06,39.682C40.58,39.282 40.812,39.011 41.391,38.818C41.623,38.741 41.832,38.705 42.02,38.699L42.008,38.692C41.511,38.386 41.214,37.938 41.152,37.326C41.13,37.111 41.072,36.523 41.621,35.908C41.77,35.742 42.657,35.03 43.36,34.527L43.42,34.46C43.441,34.358 43.466,34.252 43.494,34.144C43.303,33.931 43.134,33.628 43.07,33.18C42.964,32.44 43.113,31.603 43.284,30.831ZM48.965,25.623C48.923,25.744 48.841,26.092 48.853,26.499L48.852,26.501C48.782,26.963 48.637,27.618 48.655,27.844C48.689,28.263 48.837,28.564 48.977,28.769C49.313,29.265 49.774,29.518 50.332,29.569C50.492,29.584 50.734,29.598 51.019,29.516C51.596,29.656 52.127,29.473 52.554,29.153C53.135,28.717 53.4,28.167 53.47,27.548C53.474,27.51 53.476,27.469 53.475,27.424L53.503,27.382L53.506,27.377C53.61,27.592 53.729,27.78 53.859,27.946C53.743,28.246 53.649,28.556 53.577,28.872C53.56,28.938 53.546,29.003 53.535,29.067C53.391,29.8 53.37,30.553 53.496,31.264C53.549,31.568 53.631,31.869 53.745,32.156C53.211,33.528 52.753,35.499 53.248,36.822C53.249,36.825 53.25,36.828 53.251,36.83C53.251,36.83 53.142,37.854 53.142,37.854C52.96,38.464 52.826,39.007 52.752,39.302C52.602,39.901 52.349,40.562 52.354,40.969C52.361,41.683 52.651,42.221 53.141,42.608C53.457,42.856 53.928,43.101 54.679,43.071C55.578,43.034 56.314,42.344 56.409,41.449L56.713,38.585C56.833,38.206 56.97,37.811 57.127,37.469C57.4,37.227 57.776,36.778 57.93,36.502C58.13,36.144 58.178,35.829 58.189,35.656C58.25,34.72 57.785,34.199 57.215,33.913C57.736,33.685 58.208,33.276 58.524,32.738C58.937,32.034 59.038,31.176 58.827,30.48C58.955,30.352 59.075,30.21 59.185,30.054C59.773,29.223 59.887,27.931 59.429,26.642C59.369,26.136 59.148,25.794 58.929,25.551C58.908,25.528 58.887,25.506 58.866,25.484C58.409,24.746 57.795,24.094 57.161,23.688C56.409,23.206 55.607,23.033 54.868,23.156L54.829,23.163C54.776,22.583 54.505,22.026 54.055,21.539C53.561,21.004 52.811,20.592 52.083,20.456C51.422,20.333 50.781,20.427 50.261,20.694C49.71,20.978 49.342,21.524 49.285,22.141L48.965,25.623ZM22.733,35.488C22.489,35.587 22.266,35.75 22.061,35.971C22.023,36.012 21.92,36.147 21.821,36.357L21.498,36.579C21.006,36.917 20.712,37.476 20.712,38.073C20.712,39.187 21.23,39.755 21.712,40.073C22.151,40.363 22.686,40.491 23.272,40.4C23.554,40.356 23.864,40.242 24.161,40.073C24.943,40.014 25.698,39.592 26.163,39.068C26.534,38.651 26.945,37.783 26.999,36.968C27.055,36.126 26.768,35.371 26.24,34.871C25.425,34.098 24.481,34.046 23.528,34.683C23.259,34.863 22.974,35.18 22.733,35.488ZM23.362,39.108L23.378,39.11L23.378,39.11L23.362,39.108ZM23.23,39.083L23.309,39.098L23.23,39.083ZM23.101,39.049L23.175,39.069L23.101,39.049ZM22.975,39.005L23.045,39.03L22.975,39.005ZM22.214,38.328L22.213,38.383C22.301,38.543 22.43,38.693 22.618,38.819L22.687,38.862C22.727,38.885 22.772,38.907 22.823,38.924C22.939,38.963 23.052,38.991 23.163,39.009C22.782,38.894 22.447,38.656 22.214,38.328ZM22.852,38.952L22.919,38.981L22.852,38.952ZM22.733,38.89L22.797,38.924L22.733,38.89ZM22.618,38.819L22.662,38.848L22.687,38.862L22.618,38.819ZM21.687,37.969C21.68,37.943 21.673,37.917 21.666,37.891L21.687,37.969ZM23.406,36.893C23.439,37.101 23.596,37.363 23.744,37.504C23.845,37.6 23.949,37.676 24.055,37.735L24.147,37.432C24.02,37.252 23.85,37.136 23.711,37.045C23.628,36.99 23.523,36.937 23.406,36.893ZM25.641,26.335L25.641,26.336C25.64,26.618 25.693,26.857 25.78,27.06L26.399,27.407L26.392,27.504L26.392,27.555L25.956,27.31C25.902,27.249 25.852,27.183 25.806,27.115L25.78,27.06L25.765,27.051C25.687,26.923 25.624,26.785 25.579,26.638C25.601,26.709 25.625,26.777 25.65,26.842C25.663,27.245 25.7,27.72 25.778,28.163C25.769,28.258 25.763,28.362 25.763,28.47C25.763,28.942 25.812,29.414 25.875,29.882C25.889,30.004 25.945,30.477 26.04,30.789C26.171,31.22 26.396,31.574 26.624,31.802C26.752,31.93 26.882,32.038 27.012,32.128C27.039,32.219 27.071,32.307 27.106,32.39C27.312,32.865 27.608,33.258 28.015,33.518C28.113,33.703 28.247,33.885 28.424,34.062C28.988,34.625 29.541,34.641 29.897,34.613C30.43,34.57 30.919,34.338 31.278,33.801C31.373,33.66 31.468,33.478 31.531,33.247C31.541,33.213 31.549,33.156 31.554,33.087L31.581,33.072L31.555,33.08L31.562,33.006L31.57,32.878C31.739,32.725 31.884,32.566 31.99,32.413C32.251,32.113 32.433,31.745 32.397,31.316C32.424,30.955 32.348,30.605 32.193,30.282C32.062,30.008 31.843,29.68 31.431,29.414L31.075,28.825C31.152,28.563 31.172,28.312 31.164,28.087C31.144,27.509 30.906,26.962 30.457,26.526C30.306,26.378 30.121,26.245 29.915,26.133C30.152,25.226 29.864,24.381 29.451,23.943C29.033,23.502 28.336,23.045 27.161,23.447C26.582,23.645 26.176,24.028 25.92,24.54C25.701,24.978 25.649,25.614 25.644,26.012C25.643,26.091 25.641,26.201 25.641,26.335L25.641,26.335ZM29.622,33.846C29.58,33.851 29.538,33.856 29.496,33.861L29.439,33.864C29.64,33.923 29.779,33.939 29.779,33.939L29.731,33.828L29.622,33.846ZM6.71,18.508C6.496,19.091 6.407,19.72 6.457,20.347C6.232,20.75 6.056,21.229 5.956,21.756C5.832,22.406 5.814,23.125 5.877,23.774C5.327,24.338 4.904,25.013 4.693,25.753C4.469,26.535 4.492,27.707 4.923,28.459L4.93,28.469C4.858,28.863 4.919,29.275 5.111,29.638C5.396,30.176 5.931,30.535 6.536,30.595C8.213,30.761 9.793,29.735 9.971,27.875C9.978,27.809 9.973,27.695 9.957,27.551C10.12,27.361 10.241,27.207 10.275,27.154C10.634,26.591 11.334,25.673 11.757,24.737C11.985,24.48 12.168,24.163 12.291,23.783C12.446,23.304 12.482,22.642 12.466,22.012C12.614,21.715 12.678,21.38 12.646,21.042C12.626,20.826 12.613,20.608 12.588,20.392C12.672,20.064 12.751,19.756 12.767,19.679C12.903,19.03 12.724,18.559 12.485,18.237C12.488,18.191 12.489,18.145 12.489,18.098C12.489,17.275 12.134,16.744 11.663,16.38C11.445,16.211 11.169,16.075 10.853,15.995C10.77,15.912 10.669,15.81 10.506,15.655C9.345,14.546 8.302,14.771 7.667,15.113C7.135,15.4 6.681,15.937 6.518,16.698C6.407,17.216 6.457,17.88 6.71,18.508ZM40.384,29.617C40.459,29.788 40.559,29.959 40.686,30.061C41.032,30.338 42.195,30.387 42.195,30.387C42.195,30.387 41.119,30.122 40.384,29.617ZM26.482,27.017C26.053,26.537 25.643,26.133 25.641,26.335L26.446,27.142C26.424,27.23 26.408,27.318 26.399,27.407L26.965,27.725L27,27.698L26.446,27.142L26.46,27.085L26.482,27.017ZM25.957,27.311C25.999,27.358 26.044,27.403 26.09,27.446L26.391,27.602L26.392,27.56L25.957,27.311ZM25.818,27.139C25.852,27.208 25.891,27.273 25.935,27.332L25.917,27.303L25.92,27.306L25.903,27.28L25.903,27.28L25.903,27.28L25.899,27.274L25.818,27.139ZM28.352,24.78C27.898,24.522 27.401,24.492 26.893,24.738C26.752,24.807 26.504,24.929 26.428,25.143C26.235,25.682 26.559,26.164 26.806,26.427C27.04,26.144 27.356,25.935 27.716,25.835C27.878,25.286 28.09,24.831 28.352,24.78ZM36.716,24.748C36.957,25.125 37.335,25.406 37.778,25.523C37.771,25.464 37.766,25.404 37.762,25.343L36.716,24.748ZM29.013,25.412L29.017,25.418L29.013,25.412ZM28.781,25.111L28.773,25.103L28.728,25.058L28.781,25.111ZM28.747,25.08L28.763,25.098L28.765,25.099L28.751,25.085L28.747,25.08ZM28.68,25.016L28.739,25.072L28.701,25.035L28.68,25.016ZM28.717,25.048L28.704,25.036L28.687,25.02L28.717,25.048ZM28.648,24.987L28.592,24.941L28.663,25L28.648,24.987ZM39.791,23.04C39.778,23.11 39.754,23.19 39.721,23.277C39.776,23.279 39.834,23.284 39.892,23.293L39.865,23.208C39.848,23.168 39.832,23.128 39.815,23.089L39.791,23.04ZM39.778,22.805L39.779,22.807L39.802,22.84L39.797,22.833L39.778,22.805ZM39.432,22.423L39.478,22.463L39.479,22.464L39.472,22.458L39.432,22.423ZM12.228,22.453L12.226,22.458L12.228,22.453ZM39.107,22.209C39.218,22.266 39.323,22.335 39.42,22.413C39.324,22.335 39.219,22.266 39.107,22.209ZM39.024,22.169L39.101,22.206L39.054,22.182L39.024,22.169ZM38.939,22.133L39.012,22.164L38.976,22.148L38.939,22.133ZM38.853,22.102L38.924,22.127L38.896,22.117L38.853,22.102ZM38.764,22.075L38.834,22.095L38.815,22.089L38.764,22.075ZM38.673,22.052L38.743,22.069L38.731,22.065L38.673,22.052ZM26.262,10.385C25.832,10.37 25.414,10.426 25.112,10.519C22.446,11.339 20.636,12.381 19.169,14.721C18.823,15.273 18.8,15.969 19.109,16.544C19.418,17.118 20.011,17.483 20.663,17.498L22.25,17.536C22.571,18.038 23.133,18.416 23.961,18.553C24.64,18.666 25.631,18.569 26.462,18.285C26.885,18.14 27.265,17.946 27.574,17.731C28.311,17.504 29.025,17.174 29.539,16.935C29.88,16.777 30.679,16.465 31.121,16.01C31.609,15.507 31.868,14.885 31.805,14.146C32.351,13.709 32.684,13.108 32.748,12.328C32.853,11.049 32.233,10.34 31.308,9.958C30.968,9.818 30.548,9.739 30.105,9.735C29.586,9.731 29.017,9.849 28.827,9.865C27.874,9.947 27.051,10.078 26.262,10.385ZM24.766,17.596L24.766,17.596L24.766,17.595L24.766,17.595L24.766,17.596ZM9.626,16.885L9.626,16.885C9.626,16.885 9.626,16.885 9.626,16.885ZM22.954,15.729L22.953,15.73L22.952,15.834L22.958,15.931L22.964,15.98L22.965,15.981L22.957,15.907C22.956,15.871 22.954,15.835 22.953,15.799L22.954,15.729ZM36.019,7.638C36.17,7.92 36.4,8.174 36.73,8.388C36.926,8.516 37.197,8.64 37.53,8.737C37.777,8.808 38.118,8.858 38.421,8.988C39.614,9.499 40.827,9.674 42.053,9.571C42.223,9.75 42.412,9.921 42.615,10.079C43.474,10.751 44.581,11.202 45.373,11.298C45.888,11.36 47.06,11.254 47.724,10.848C48.44,10.409 48.829,9.751 48.829,8.929C48.829,7.823 48.241,7.128 47.31,6.786C47.101,6.709 46.858,6.661 46.603,6.639C46.61,6.135 46.411,5.646 45.888,5.207C45.534,4.91 44.939,4.65 44.174,4.71C43.728,4.745 43.183,4.909 42.696,5.141C42.276,5.08 41.863,5.056 41.475,5.076C40.453,4.646 39.21,4.403 38.524,4.247C38.13,4.156 37.226,4.037 36.779,4.025C36.397,4.015 36.118,4.081 35.983,4.126C35.121,4.407 34.856,5.029 34.757,5.464C34.686,5.778 34.449,6.992 35.922,7.602C35.954,7.615 35.986,7.627 36.019,7.638ZM21.981,3.43C21.232,3.495 20.511,3.629 20.138,3.795C19.618,4.026 19.313,4.365 19.141,4.658C18.765,5.296 18.683,6.017 19.257,6.803C19.45,7.068 19.963,7.556 21.151,7.953C21.434,8.048 21.736,8.071 22.031,8.021L28.851,6.861C28.985,6.838 29.116,6.8 29.241,6.748C31.031,6.006 30.831,4.739 30.672,4.211C30.552,3.814 30.279,3.365 29.729,3.047C29.448,2.884 28.954,2.749 28.487,2.673C28.428,2.616 28.365,2.559 28.297,2.503C27.665,1.976 26.833,1.747 25.896,1.837C24.67,1.954 23.177,2.73 22.469,3.151C22.353,3.219 22.174,3.315 21.981,3.43Z" style="fill:rgb(168,138,109);"/>
</svg>
