<?xml version="1.0" encoding="UTF-8" standalone="no"?>
<!DOCTYPE svg PUBLIC "-//W3C//DTD SVG 1.1//EN" "http://www.w3.org/Graphics/SVG/1.1/DTD/svg11.dtd">
<svg width="100%" height="100%" viewBox="0 0 60 60" version="1.1" xmlns="http://www.w3.org/2000/svg" xmlns:xlink="http://www.w3.org/1999/xlink" xml:space="preserve" xmlns:serif="http://www.serif.com/" style="fill-rule:evenodd;clip-rule:evenodd;stroke-linejoin:round;stroke-miterlimit:2;">
    <g id="Toxins">
        <path d="M37.313,48.506C37.142,48.6 36.981,48.697 36.834,48.797L36.819,48.807L36.763,48.804C36.501,48.52 36.12,48.276 35.613,48.173C35.084,48.066 34.16,48.212 33.949,48.247C33.434,48.333 31.661,48.756 30.651,49.366C30.353,49.546 30.105,49.748 29.903,49.964L29.836,50.028C29.719,50.145 29.616,50.266 29.528,50.389C29.206,50.494 28.895,50.621 28.615,50.767C28.382,50.835 28.169,50.948 27.985,51.098C27.58,51.191 27.177,51.3 26.919,51.41C26.269,51.688 25.891,52.115 25.711,52.453C25.393,53.053 25.444,53.552 25.561,53.932C25.681,54.32 25.91,54.659 26.277,54.919C26.509,55.084 26.862,55.251 27.333,55.286C27.519,55.3 27.787,55.277 28.043,55.247C28.838,55.728 29.952,55.925 31.169,55.754C32.415,55.579 33.738,55.047 34.667,54.473C35.757,54.377 36.822,54.179 37.868,53.798C38.337,53.628 38.713,53.386 39.001,53.124C39.969,52.853 41.032,52.344 41.205,52.247C41.319,52.182 42.215,51.518 42.526,50.916C42.891,50.747 43.245,50.554 43.569,50.345C44.46,49.768 45.11,49.044 45.384,48.408C45.626,47.845 45.663,47.288 45.529,46.762C45.332,45.991 44.701,45.299 43.649,45.068C43.385,44.853 43.014,44.673 42.472,44.673C41.582,44.673 39.435,45.59 38.296,46.771C37.765,47.323 37.441,47.93 37.313,48.506Z" style="fill:rgb(219,0,255);"/>
        <path d="M42.836,35.268C42.303,35.897 41.825,36.643 41.484,37.399C41.409,37.564 41.342,37.73 41.283,37.896C40.945,38.251 40.612,38.719 40.43,39.193C40.051,39.437 39.783,39.734 39.646,39.959C39.344,40.458 39.308,40.955 39.417,41.405C39.515,41.811 39.737,42.256 40.295,42.596C40.63,42.801 41.043,42.946 41.511,43.02C41.811,43.209 42.169,43.311 42.549,43.295C42.969,43.277 43.274,43.27 43.701,43.201C44.187,43.124 44.57,42.986 44.872,42.813C45.537,42.635 46.196,42.291 46.726,41.897C46.794,41.866 46.857,41.836 46.915,41.808C47.063,41.736 47.216,41.648 47.368,41.547C47.838,41.275 48.238,40.96 48.582,40.609C49.718,39.449 50.277,37.831 50.396,35.626C50.434,34.922 50.433,33.456 50.023,32.45C49.696,31.649 49.151,31.062 48.441,30.758C46.574,29.959 44.518,31.069 43.476,32.954C43.063,33.699 42.851,34.504 42.836,35.268ZM44,33.763L44.061,33.703C44.054,33.709 43.996,33.766 43.996,33.766L44,33.763Z" style="fill:rgb(219,0,255);"/>
        <path d="M12.199,40.845C10.462,41.185 10.049,42.26 9.979,42.88C9.937,43.258 10.006,43.718 10.247,44.179C10.107,44.505 10.011,44.878 9.963,45.302C9.826,46.539 10.742,47.644 11.631,48.26C12.183,48.642 13.298,49.068 14.487,49.291C14.634,49.48 14.784,49.65 14.928,49.795C15.334,50.205 15.771,50.526 16.232,50.774C16.267,50.972 16.335,51.175 16.439,51.384C16.682,51.869 17.138,52.309 17.882,52.468L17.959,52.481C18.089,52.647 18.261,52.802 18.484,52.942C18.623,53.029 18.824,53.131 19.097,53.19C19.326,53.241 20.011,53.237 20.305,53.233C20.427,53.231 20.632,53.221 20.882,53.198C21.787,53.457 22.741,53.492 23.482,53.303C24.312,53.092 24.943,52.623 25.323,51.976C25.703,51.329 25.658,50.767 25.493,50.303C25.424,50.108 25.322,49.917 25.182,49.741C25.41,49.313 25.446,48.896 25.39,48.511C25.331,48.107 25.152,47.706 24.819,47.357C24.477,46.999 23.79,46.709 23.289,46.551C23.157,46.444 23.014,46.346 22.862,46.26C22.881,46.145 22.89,46.028 22.89,45.907C22.89,45.088 22.367,44.261 21.84,43.743C21.485,43.393 20.577,42.669 19.789,42.35C19.086,42.065 18.413,42.057 17.901,42.224C17.417,42.382 17.04,42.585 16.748,42.81C16.139,42.001 14.941,41.103 14.031,40.811C13.315,40.581 12.675,40.642 12.199,40.845Z" style="fill:rgb(219,0,255);"/>
        <path d="M20.342,27.181C19.951,27.147 19.541,27.198 19.142,27.341C18.075,27.723 17.343,28.725 17.317,29.668C16.847,30.212 16.452,30.834 16.232,31.284C15.984,31.577 15.78,31.874 15.635,32.154C15.388,32.633 15.281,33.102 15.281,33.516C15.281,34.383 15.653,34.889 16.057,35.222C16.45,35.545 16.969,35.731 17.567,35.703C18.025,35.682 18.577,35.49 18.917,35.32C18.98,35.289 19.053,35.247 19.133,35.194C19.437,35.347 19.773,35.396 20.122,35.376C20.409,35.359 20.743,35.275 21.079,35.066C21.165,35.013 21.26,34.939 21.355,34.854C21.442,34.906 21.534,34.95 21.63,34.988C21.99,35.13 22.516,35.247 23.193,34.909C23.579,34.716 24.134,34.151 24.462,33.786L24.492,33.779C24.974,34.107 25.423,34.142 25.795,34.096C26.157,34.051 26.495,33.911 26.795,33.653C27.009,33.469 27.242,33.182 27.385,32.766C27.455,32.564 27.538,32.013 27.555,31.896L27.646,31.572L27.715,31.311C28.203,30.88 28.442,30.201 28.279,29.525C28.194,29.172 28.057,28.879 27.883,28.641C27.933,28.371 27.966,28.078 27.977,27.761C28.013,26.76 27.23,25.919 26.229,25.883C25.647,25.862 25.119,26.118 24.772,26.534C24.627,26.212 24.426,25.886 24.162,25.555C24.166,25.56 24.19,25.59 24.19,25.59C24.19,25.59 23.553,24.788 23.125,24.511C22.716,24.245 22.298,24.147 21.946,24.147C21.224,24.147 20.801,24.454 20.528,24.74C20.224,25.059 20.033,25.459 20.008,25.955C19.994,26.234 20.041,26.629 20.269,27.06C20.289,27.098 20.314,27.138 20.342,27.181Z" style="fill:rgb(219,0,255);"/>
        <path d="M21.957,29.376C22.175,30.004 22.604,30.6 23.151,31.049L22.923,31.121L22.881,31.136C22.489,31.103 22.029,31.117 21.626,31.171C20.675,31.298 19.992,31.791 19.819,32.001C19.715,32.127 19.633,32.256 19.57,32.386C19.101,32.561 18.707,32.929 18.513,33.432C18.152,34.366 18.619,35.417 19.553,35.777C20.878,36.288 22.158,36.343 23.492,35.736C23.962,35.523 24.688,34.899 24.968,34.256C25.907,33.909 26.921,33.446 27.643,32.859C28.719,31.986 29.27,30.863 29.082,29.556C29.012,29.071 28.828,28.532 28.457,27.957C28.275,26.986 27.604,25.683 26.676,24.904C25.641,24.036 24.402,23.784 23.27,24.323C22.651,24.617 21.728,25.303 21.302,26.045C20.744,27.014 20.709,28.062 21.577,29.049C21.691,29.178 21.819,29.288 21.957,29.376Z" style="fill:rgb(219,0,255);"/>
        <path d="M39.643,16.95C39.202,17.159 38.843,17.552 38.724,18.265C38.711,18.342 38.703,18.427 38.7,18.517C38.276,18.416 37.922,18.488 37.642,18.591C37.611,18.603 37.581,18.615 37.552,18.628C37.411,18.634 37.271,18.651 37.132,18.679C36.331,18.839 35.811,19.308 35.496,19.939C35.264,20.402 35.184,21.01 35.184,21.47C35.184,22.154 35.253,23.747 35.617,24.901C35.876,25.724 36.306,26.367 36.792,26.743C37.707,27.451 38.667,27.386 39.525,26.805C40.007,27.035 40.488,27.059 40.971,26.92C41.224,26.848 41.703,26.528 41.902,26.39C42.115,26.286 42.333,26.194 42.55,26.098C43.006,25.898 43.271,25.816 43.702,25.554C45.268,24.605 45.991,23.354 46.209,21.973C46.951,21.14 47.319,20.114 47.083,18.875C46.888,17.855 46.531,17.214 46.091,16.731C45.773,16.381 45.388,16.118 44.909,15.875C44.653,15.437 44.351,15.026 44.029,14.777C43.474,14.347 42.874,14.135 42.238,14.228C41.778,13.599 40.943,13.317 40.171,13.589C39.226,13.923 38.73,14.96 39.064,15.904C39.186,16.251 39.386,16.603 39.643,16.95Z" style="fill:rgb(219,0,255);"/>
        <path d="M16.973,15.017C16.26,15.247 15.737,15.908 15.717,16.699C15.675,18.399 16.727,18.822 17.046,18.926C17.527,19.082 18.207,19.129 18.89,18.532C19.012,18.426 19.196,18.161 19.415,17.844L19.489,17.896C19.582,17.959 19.683,18.015 19.789,18.064C19.474,19.013 19.988,20.04 20.937,20.356C21.887,20.673 22.915,20.159 23.232,19.209C23.313,18.967 23.516,18.81 23.74,18.663C24.16,18.386 24.679,18.19 25.223,18.022C25.793,18.622 26.502,18.793 27.272,18.621C27.899,18.481 28.662,17.876 28.917,17.638C29.198,17.375 29.463,17.095 29.723,16.811C30.308,16.568 30.851,16.205 31.452,16.001C31.726,15.908 32.011,15.863 32.299,15.871C32.591,15.932 33.184,16.048 33.487,16.041C34.011,16.028 34.402,15.845 34.645,15.672C35.17,15.299 35.438,14.787 35.438,14.139C35.438,13.401 35.1,12.719 34.26,12.309C34.075,12.218 33.83,12.141 33.557,12.087C33.512,11.751 33.369,11.475 33.17,11.25C33.371,10.689 33.325,10.088 33.02,9.478C32.675,8.789 32.057,8.297 31.301,8.068C30.405,7.795 29.329,7.945 28.611,8.387C27.464,9.093 26.44,9.854 25.253,10.533C23.292,11.653 20.958,12.049 19.028,13.252C18.384,13.653 17.567,14.231 17.094,14.852C17.056,14.903 17.015,14.959 16.973,15.017Z" style="fill:rgb(219,0,255);"/>
        <path d="M4.394,26.226C4.23,26.457 4.028,26.739 3.974,26.81C3.258,27.735 3.124,29.001 3.088,30.109C3.044,31.475 3.118,33.303 3.692,34.817C3.838,35.202 4.015,35.569 4.225,35.909C4.553,36.645 4.995,37.324 5.577,37.906C6.063,38.391 6.501,38.435 6.688,38.458C7.189,38.519 7.588,38.383 7.912,38.169C7.938,38.152 7.963,38.135 7.989,38.116C8.338,38.052 8.671,37.885 8.94,37.616C9.649,36.908 9.649,35.758 8.94,35.05C8.72,34.83 8.623,34.443 8.522,34.041C8.289,33.119 8.236,32.054 8.303,31.357C8.366,30.699 8.623,30.147 8.767,29.51C8.794,29.425 8.97,28.861 8.993,28.634C9.034,28.229 8.958,27.887 8.845,27.625C8.66,27.193 8.38,26.834 7.94,26.636C7.883,26.188 7.66,25.89 7.494,25.702C7.104,25.26 6.437,24.781 5.394,25.248C5.295,25.292 5.09,25.383 4.852,25.621C4.69,25.782 4.534,25.987 4.394,26.226Z" style="fill:rgb(219,0,255);"/>
        <path d="M8.159,16.897C7.793,17.648 7.584,18.413 7.584,19.143C7.584,19.99 8.007,20.395 8.286,20.615C8.729,20.966 9.285,21.139 9.966,20.93C10.175,20.866 10.506,20.721 10.82,20.391C11.032,20.166 11.359,19.656 11.478,19.403C11.745,18.829 11.954,18.269 12.3,17.735C12.955,16.722 13.911,15.827 14.795,15.002C14.947,14.891 15.663,14.361 15.897,14.061C16.068,13.841 16.184,13.616 16.257,13.398C16.434,13.219 16.623,13.021 16.695,12.924C16.829,12.743 16.902,12.583 16.945,12.473C17.267,11.643 16.966,11.051 16.69,10.694C16.45,10.384 16.112,10.124 15.608,10.023C15.427,9.986 15,9.89 14.389,10.195C13.253,10.763 11.568,12.054 10.268,13.44C9.299,14.473 8.556,15.572 8.258,16.466C8.206,16.621 8.174,16.765 8.159,16.897Z" style="fill:rgb(219,0,255);"/>
        <path d="M50.982,23.764C51.26,24.447 51.563,25.122 51.828,25.808L51.888,26.049L51.946,26.272L51.954,26.312C51.964,26.357 51.975,26.403 51.986,26.448L52.018,26.555C51.906,26.885 51.794,27.32 51.737,27.552C51.579,28.181 51.47,28.825 51.402,29.47C51.369,29.785 51.372,30.365 51.463,30.695C51.512,30.874 51.58,31.032 51.66,31.169C51.531,31.442 51.443,31.776 51.443,32.198C51.443,32.916 51.637,33.614 51.927,34.295C51.981,34.421 52.041,34.547 52.103,34.672L51.824,35.055C51.741,35.152 51.66,35.264 51.583,35.392C50.839,36.619 51.677,37.486 52.04,37.779L52.017,37.85C52,37.902 51.982,37.953 51.964,38.005L51.897,38.192C51.695,38.338 51.591,38.486 51.553,38.533C51.504,38.594 51.371,38.967 51.318,39.428C51.152,39.679 51.006,39.92 50.918,40.106C50.425,41.145 50.487,42.113 51.102,42.933C51.669,43.69 52.341,43.786 52.909,43.71C53.325,43.655 53.829,43.458 54.236,42.915C54.415,42.676 54.632,42.232 54.785,41.7C54.899,41.304 54.99,40.851 55.053,40.481C55.156,40.334 55.249,40.198 55.319,40.088C55.65,39.571 55.836,39.062 55.881,38.624C55.931,38.15 56.117,37.586 56.212,37.037C56.324,36.389 56.338,35.755 56.205,35.192L56.202,35.179L56.316,35.011C56.472,34.776 56.905,34.002 56.985,33.42C57.103,32.564 56.794,31.874 56.202,31.416C56.114,31.348 56.023,31.287 55.928,31.235L55.922,31.204L55.905,31.138C56.015,30.756 56.104,30.362 56.169,29.962C56.235,29.789 56.285,29.616 56.317,29.445C56.385,29.077 56.385,28.71 56.292,28.342C56.283,27.717 56.206,27.097 56.046,26.505C55.975,26.238 55.737,25.823 55.573,25.555C55.496,25.322 55.414,25.09 55.328,24.859L55.28,24.613C55.11,23.698 54.728,22.96 54.28,22.245L54.176,21.977C53.766,20.904 53.056,19.102 52.047,18.345C51.397,17.858 50.838,17.934 50.491,18.019C49.965,18.147 49.51,18.46 49.245,19.069C49.17,19.24 49.101,19.466 49.09,19.75C49.08,19.993 49.225,20.646 49.326,20.924C49.491,21.379 49.725,21.808 49.968,22.228C50.282,22.771 50.634,23.255 50.965,23.739L50.982,23.764Z" style="fill:rgb(219,0,255);"/>
        <path d="M38.135,8.555L38.879,8.727C39.261,8.814 39.659,8.875 40.048,8.961C40.329,9.023 40.618,9.07 40.843,9.267C41.047,9.445 41.179,9.7 41.345,9.923C41.562,10.215 41.797,10.487 42.065,10.721C42.158,11.087 42.283,11.442 42.448,11.731C42.792,12.333 43.278,12.745 43.842,12.953C44.413,13.163 45.119,13.212 45.967,12.787C47.261,12.141 45.601,9.309 45.601,9.309C45.601,9.309 46.244,9.891 46.347,10.165C46.032,9.327 45.815,9.022 45.442,8.72C45.38,7.802 44.634,7.07 43.709,7.032C43.561,6.853 43.403,6.686 43.231,6.535C42.23,5.659 40.914,5.469 39.683,5.189C39.198,5.079 38.665,4.924 38.16,4.907C37.514,4.886 36.896,5.032 36.33,5.42C35.505,5.986 35.294,7.117 35.86,7.942C36.372,8.688 37.343,8.932 38.135,8.555Z" style="fill:rgb(219,0,255);"/>
    </g>
</svg>
