<?xml version="1.0" encoding="UTF-8" standalone="no"?>
<!DOCTYPE svg PUBLIC "-//W3C//DTD SVG 1.1//EN" "http://www.w3.org/Graphics/SVG/1.1/DTD/svg11.dtd">
<svg width="100%" height="100%" viewBox="0 0 60 60" version="1.1" xmlns="http://www.w3.org/2000/svg" xmlns:xlink="http://www.w3.org/1999/xlink" xml:space="preserve" xmlns:serif="http://www.serif.com/" style="fill-rule:evenodd;clip-rule:evenodd;stroke-linejoin:round;stroke-miterlimit:2;">
    <g id="Water-1" serif:id="Water 1">
        <path d="M26.673,9.95C26.68,10.007 26.689,10.063 26.7,10.118C26.89,11.066 27.547,11.755 28.428,12.101C29.217,12.661 30.227,12.807 31.297,12.576C31.668,12.496 32.047,12.367 32.412,12.212C32.456,12.268 32.505,12.322 32.558,12.375C32.822,12.639 33.106,12.792 33.391,12.873C33.437,13.105 33.515,13.333 33.619,13.556C34.02,14.414 34.985,15.169 35.84,15.436C36.195,15.546 36.665,15.597 37.181,15.584C37.257,15.792 37.336,15.991 37.413,16.17C37.358,16.619 37.488,17.076 37.889,17.525C37.984,17.631 38.266,17.986 38.926,18.103C38.95,18.108 39.344,18.138 39.54,18.152C39.835,18.248 40.005,18.229 40.028,18.229C40.605,18.242 40.968,18.017 41.194,17.837C41.647,17.477 41.89,17.001 41.881,16.388C41.878,16.219 41.911,15.556 41.185,14.987L41.059,14.901C41.078,14.851 41.095,14.799 41.11,14.745C42.488,14.478 43.842,13.1 43.294,11.454C43.17,11.083 42.985,10.768 42.747,10.507C42.46,9.144 41.551,8.233 40.312,7.664C38.901,7.016 36.958,6.91 35.734,6.865C35.329,6.232 34.752,5.713 33.991,5.412C32.339,4.758 29.999,5.441 28.545,6.237C28.047,6.51 27.296,7.041 26.912,7.638C26.46,8.343 26.307,9.125 26.673,9.95Z" style="fill:rgb(0,85,202);"/>
        <path d="M23.678,13.935C23.125,14.035 22.523,14.318 22.174,14.482C21.657,14.726 21.121,15.025 20.609,15.373C19.788,15.247 18.856,15.37 18.023,15.715C17.789,15.767 17.563,15.851 17.357,15.966C17.02,16.156 16.732,16.429 16.484,16.742C15.98,17.248 15.63,17.851 15.496,18.511L15.48,18.547C15.22,19.149 15.312,19.815 15.665,20.315L15.678,20.349C15.203,21.104 15.059,21.892 15.26,22.652C15.492,23.533 16.104,24.085 17.006,24.284C17.723,24.443 18.834,24.206 19.224,24.103C20.27,23.828 21.544,23.217 22.562,22.504C22.858,22.557 23.159,22.598 23.485,22.621C23.795,22.643 24.097,22.635 24.394,22.606C24.363,23.132 24.572,23.479 24.701,23.677C25.066,24.235 25.64,24.63 26.538,24.482C26.726,24.451 27.054,24.363 27.408,24.103C27.596,23.965 27.9,23.673 28.102,23.462C28.584,23.874 29.479,24.161 30.362,23.997C31.386,23.807 32.161,23.067 32.38,22.372C32.541,21.862 32.514,21.383 32.307,20.947C32.494,20.198 32.352,19.449 31.86,18.821C31.465,18.318 30.964,18.083 30.391,18.068C30.05,17.204 29.381,16.673 28.479,16.477C28.481,16.357 28.478,16.239 28.471,16.122C28.393,14.948 27.852,13.735 26.429,13.477C25.472,13.304 24.526,13.505 23.678,13.935Z" style="fill:rgb(0,85,202);"/>
        <path d="M13.478,29.96C13.107,30.001 12.769,30.154 12.5,30.384C12.376,30.445 12.282,30.509 12.224,30.549C11.888,30.776 11.541,31.119 11.441,31.649C11.375,31.682 11.312,31.723 11.252,31.774C10.855,31.937 10.474,32.231 10.186,32.657C9.825,32.777 9.421,33.019 8.986,33.454C8.406,34.035 8.397,34.606 8.433,34.972C8.486,35.505 8.728,35.994 9.28,36.346C9.428,36.44 9.655,36.553 9.956,36.611C9.98,36.688 10.007,36.759 10.034,36.823C10.229,37.285 10.574,37.66 11.142,37.855C11.275,37.901 11.446,37.943 11.652,37.956C11.808,38.138 11.996,38.282 12.214,38.391C12.331,38.449 12.612,38.587 13.066,38.585C13.121,38.585 13.288,38.574 13.479,38.56C13.546,38.58 13.613,38.597 13.68,38.611C14.136,38.708 14.567,38.67 14.92,38.575C15.101,38.579 15.29,38.576 15.489,38.564C16.488,38.507 17.253,37.649 17.196,36.649C17.169,36.179 16.964,35.76 16.651,35.455C16.633,34.799 16.39,34.354 15.996,34.052C16.244,33.405 15.983,32.79 15.758,32.436C16.016,31.731 15.733,31.164 15.663,31.025C15.383,30.465 14.99,30.201 14.616,30.053C14.264,29.913 13.881,29.871 13.478,29.96ZM15.49,31.697L15.492,31.763C15.492,31.741 15.491,31.719 15.49,31.697ZM14.538,30.786L14.586,30.84C14.568,30.816 14.548,30.793 14.525,30.771L14.492,30.739L14.538,30.786ZM14.451,30.7L14.468,30.716L14.464,30.712L14.451,30.7ZM14.397,30.653L14.404,30.66L14.397,30.653ZM14.321,30.594L14.342,30.61L14.337,30.606L14.321,30.594ZM14.126,30.468L14.156,30.486L14.138,30.475L14.126,30.468Z" style="fill:rgb(0,85,202);"/>
        <path d="M49.332,21.966C49.278,22.057 49.201,22.182 49.148,22.259C49.017,22.448 48.887,22.634 48.774,22.82C48.293,23.608 48.101,24.42 48.339,25.283C48.444,25.662 48.638,26.016 48.89,26.333C48.704,26.971 48.812,27.613 49.159,28.248C49.35,28.599 49.646,28.959 49.984,29.295C50.182,29.492 50.514,29.814 50.609,29.905C50.757,30.243 51.012,30.769 51.226,30.956C51.705,31.377 52.296,31.586 53.057,31.384C54.025,31.127 54.603,30.133 54.346,29.165C54.261,28.844 54.094,28.566 53.874,28.347C53.851,28.283 53.83,28.228 53.814,28.196C53.746,28.061 53.656,27.917 53.546,27.769C54.045,27.45 54.264,26.975 54.325,26.464C54.364,26.138 54.398,25.53 53.764,24.896C53.363,24.495 52.825,24.249 52.223,24.196C52.365,23.976 52.513,23.737 52.605,23.557C53.124,22.545 53.325,21.417 52.395,20.023C51.84,19.189 50.712,18.964 49.879,19.519C49.069,20.059 48.834,21.14 49.332,21.966ZM50.578,29.836C50.518,29.698 50.482,29.606 50.482,29.606C50.482,29.606 50.542,29.766 50.568,29.819L50.578,29.836Z" style="fill:rgb(0,85,202);"/>
        <path d="M25.387,49.621C25.005,49.679 24.632,49.776 24.413,49.865C24.118,49.984 23.891,50.141 23.718,50.314C23.255,50.349 22.764,50.462 22.415,50.61C22.105,50.741 21.862,50.911 21.68,51.081C21.32,51.221 21.054,51.414 20.881,51.587C20.405,52.063 20.31,52.579 20.35,53.039C20.386,53.456 20.566,54.25 21.578,54.618C21.67,54.652 21.853,54.683 22.09,54.706C22.216,54.969 22.417,55.238 22.748,55.485C23.239,55.851 23.845,56.007 24.557,55.878C24.605,55.869 24.661,55.856 24.724,55.839C24.847,55.879 24.984,55.91 25.139,55.926C25.208,55.933 25.389,55.952 25.657,55.907C25.841,55.875 26.491,55.712 26.852,55.547C27.136,55.417 27.346,55.258 27.478,55.131C27.862,54.763 28.004,54.354 28.048,54.007C28.079,53.759 28.075,53.502 28.005,53.249C28.423,53.044 28.772,52.782 29.005,52.497C30.306,52.087 31.522,50.982 31.83,50.197C32.089,49.54 32.022,48.909 31.7,48.322C31.481,47.922 30.734,47.272 30.734,47.272C30.734,47.272 30.761,47.296 30.772,47.307C30.544,47.08 30.262,46.908 29.911,46.819C29.679,46.761 29.378,46.731 29.023,46.808C28.924,46.829 28.695,46.916 28.527,46.984C28.071,46.947 27.621,46.817 27.171,46.727C26.189,46.532 25.233,47.171 25.038,48.153C24.931,48.69 25.074,49.22 25.387,49.621Z" style="fill:rgb(0,85,202);"/>
        <path d="M38.536,19.941C38.406,20.08 38.299,20.213 38.251,20.313C38.048,20.73 37.994,21.161 38.082,21.602C38.176,22.072 38.743,22.642 39.157,23.006C39.202,23.252 39.276,23.609 39.351,23.812C39.395,23.935 39.447,24.052 39.507,24.164C39.514,24.649 39.724,25.084 40.174,25.46C40.231,25.508 40.314,25.578 40.431,25.648C40.339,26.231 40.507,26.715 40.82,27.112C41.007,27.348 41.272,27.589 41.692,27.735L41.717,27.778C41.989,28.218 42.382,28.504 42.914,28.61C43.086,28.645 43.296,28.66 43.532,28.643C43.781,28.881 44.162,29.095 44.787,29.147C45.585,29.213 46.399,29.33 47.193,29.313C47.292,29.369 47.408,29.421 47.542,29.464C47.784,29.54 48.525,29.588 48.637,29.588C48.762,29.588 48.873,29.558 48.986,29.614C49.882,30.062 50.972,29.699 51.42,28.803C51.773,28.098 51.622,27.272 51.105,26.734C51.082,26.598 51.043,26.468 50.994,26.346C50.825,25.928 50.47,25.382 49.613,25.235C49.501,25.215 48.803,25.287 48.53,25.336C48.119,25.411 47.859,25.555 47.472,25.652C47.065,25.753 46.643,25.732 46.217,25.678C46.158,25.579 46.087,25.487 46.003,25.403C45.867,25.267 45.711,25.148 45.535,25.053C45.501,24.975 45.473,24.932 45.473,24.932C45.185,24.356 44.789,24.034 44.317,23.889C44.221,23.714 44.108,23.573 43.988,23.454C43.978,23.024 43.788,22.608 43.392,22.212C43.247,22.067 42.957,21.971 42.633,21.909C42.601,21.767 42.566,21.632 42.532,21.54C42.478,21.393 42.414,21.255 42.339,21.127C42.418,20.965 42.472,20.8 42.504,20.637C42.539,20.463 42.615,20.043 42.365,19.489C42.345,19.446 42.29,19.337 42.219,19.203C42.279,19.097 42.329,18.983 42.367,18.862C42.671,17.908 42.143,16.887 41.188,16.584C40.133,16.248 39.476,16.517 39.099,16.757C38.452,17.168 38.025,17.88 38.172,18.901C38.21,19.165 38.364,19.562 38.536,19.941ZM43.038,26.558L43.042,26.492C43.042,26.492 43.039,26.516 43.038,26.558ZM39.449,23.25L39.478,23.277C39.514,23.307 39.605,23.371 39.605,23.371C39.605,23.371 39.545,23.327 39.449,23.25Z" style="fill:rgb(0,85,202);"/>
        <path d="M49.456,19.149C49.261,19.436 49.105,19.819 49.074,20.342C49.04,20.932 49.223,21.389 49.507,21.753C49.565,21.828 49.629,21.899 49.699,21.967L49.759,22.138C49.909,22.536 50.149,22.924 50.421,23.267C50.287,23.466 50.177,23.67 50.1,23.873C49.832,24.581 49.842,25.304 50.183,25.996L50.194,26.018C49.81,26.299 49.138,26.699 48.762,27.152C48.239,27.782 48.031,28.499 48.153,29.233C48.222,29.648 48.429,30.139 48.999,30.513C49.106,30.582 49.249,30.66 49.429,30.731C49.331,30.794 49.239,30.856 49.163,30.909C48.391,31.454 47.806,32.17 47.65,33.259C47.5,34.31 47.727,35.207 48.094,36.057C48.349,36.651 48.805,37.17 48.782,37.87C48.772,38.175 48.558,38.35 48.371,38.542C48.029,38.895 47.644,39.228 47.3,39.604C46.65,40.312 46.176,41.261 45.692,42.091C45.498,42.424 45.365,42.79 45.268,43.17L45.102,43.823C44.93,43.967 44.722,44.064 44.53,44.184C44.19,44.397 43.866,44.631 43.583,44.914C43.513,44.984 43.45,45.053 43.395,45.122C42.722,45.158 42.023,45.304 41.565,45.533C40.862,45.883 40.478,46.424 40.325,46.948C40.18,47.444 40.188,48.005 40.529,48.61C40.713,48.938 40.973,49.219 41.301,49.431C41.618,49.823 42.211,50.253 43.134,50.228C43.726,50.211 44.642,50.002 45.277,49.655C45.76,49.391 46.117,49.042 46.332,48.692C46.392,48.595 46.444,48.496 46.488,48.395C46.645,48.235 46.767,48.077 46.853,47.933C47.11,47.508 47.191,47.129 47.178,46.794C47.378,46.65 47.569,46.494 47.744,46.319C48.181,45.883 48.444,45.354 48.61,44.77C48.69,44.489 48.68,44.17 48.826,43.92C49.184,43.306 49.494,42.579 49.974,42.055C50.404,41.587 50.896,41.184 51.289,40.726C51.93,39.979 52.372,39.124 52.409,37.987C52.439,37.031 52.16,36.2 51.789,35.399C51.565,34.918 51.203,34.481 51.23,33.9C51.323,33.836 51.494,33.721 51.6,33.659C51.922,33.469 52.237,33.277 52.504,33.058C53.028,32.628 53.404,32.102 53.576,31.427C53.719,30.865 53.732,30.153 53.377,29.228C53.271,28.951 53.113,28.695 52.907,28.466C53.122,28.251 53.357,27.967 53.582,27.663C54.462,27.477 55.182,26.877 55.587,26.025C56.018,25.119 56.037,23.94 55.558,22.976C55.547,22.736 55.483,22.469 55.337,22.176C55.248,21.998 55.145,21.843 55.028,21.712L55.037,21.697C55.354,21.187 55.41,20.698 55.331,20.253C55.471,19.732 55.457,19.161 55.289,18.588C54.932,17.367 53.792,16.287 52.802,16.067C51.709,15.824 50.778,16.246 50.144,17.054C49.695,17.626 49.464,18.417 49.456,19.149Z" style="fill:rgb(0,85,202);"/>
    </g>
</svg>
