<?xml version="1.0" encoding="UTF-8" standalone="no"?>
<!DOCTYPE svg PUBLIC "-//W3C//DTD SVG 1.1//EN" "http://www.w3.org/Graphics/SVG/1.1/DTD/svg11.dtd">
<svg width="100%" height="100%" viewBox="0 0 60 60" version="1.1" xmlns="http://www.w3.org/2000/svg" xmlns:xlink="http://www.w3.org/1999/xlink" xml:space="preserve" xmlns:serif="http://www.serif.com/" style="fill-rule:evenodd;clip-rule:evenodd;stroke-linejoin:round;stroke-miterlimit:2;">
    <g id="Water-2" serif:id="Water 2">
        <path d="M12.301,32.301C12.221,33.182 12.265,34.07 12.417,34.939C12.333,35.714 12.548,36.725 12.64,37.231C12.799,38.106 13.347,39.478 14.14,40.698C14.148,41.22 14.216,41.73 14.442,42.187C14.712,42.733 15.347,43.333 16.469,43.366C16.623,43.37 16.812,43.357 17.023,43.33C17.127,43.373 17.232,43.413 17.338,43.447C17.929,44.209 18.597,44.921 19.301,45.403C19.716,45.688 20.146,45.904 20.585,46.046C20.842,46.431 21.246,46.717 21.735,46.815C22.412,46.951 23.115,47.162 23.794,47.039L23.799,47.038C24.167,47.39 24.608,47.682 25.095,47.894C25.338,48.001 25.591,48.086 25.847,48.151C26.052,48.473 26.299,48.751 26.572,48.963C27.702,49.842 29.031,49.85 30.271,49.246C31.642,48.579 32.82,47.053 33.123,45.917C33.304,45.24 33.331,44.682 33.262,44.223C33.474,43.915 33.649,43.585 33.768,43.247C34.154,42.156 34.041,41.029 33.282,40.11C32.773,39.493 32.056,39.091 31.239,38.919C31.203,38.699 31.146,38.488 31.066,38.288C31.623,38.394 32.242,38.298 32.792,37.611C33.103,37.222 34.105,35.774 34.295,34.69C34.495,33.55 34.122,32.626 33.226,32.05C32.594,31.644 32.003,31.569 31.476,31.644C30.956,31.718 30.466,31.957 30.041,32.371C29.72,32.684 29.427,33.139 29.194,33.643C29.109,33.666 29.027,33.689 28.949,33.709C28.745,33.764 28.287,33.924 27.757,34.155C27.286,34.002 26.674,33.969 25.997,34.147L25.966,34.156C25.594,33.811 25.117,33.584 24.557,33.516C23.607,33.402 22.702,33.607 21.951,34.031C21.502,33.803 20.918,33.577 20.419,33.557C19.787,33.533 19.22,33.718 18.76,34.128L18.646,34.057C18.564,34.008 18.481,33.959 18.398,33.91L18.252,33.828C18.278,33.074 18.262,32.328 18.174,31.603C18.232,31.309 18.26,31.017 18.254,30.745C18.232,29.824 17.861,29.065 17.243,28.572C17.09,28.451 16.92,28.341 16.728,28.251C16.217,27.771 15.613,27.528 14.985,27.525C14.52,27.524 14.014,27.646 13.494,28.017C13.075,28.317 12.683,28.821 12.451,29.506C12.185,30.29 12.128,31.382 12.301,32.301Z" style="fill:rgb(0,85,202);"/>
        <path d="M50.427,27.978C49.357,28.828 48.676,30.24 49.102,31.802C49.248,32.338 49.493,32.728 49.79,33.014C49.178,33.125 48.562,33.472 48.041,34.201C47.555,34.882 47.366,35.512 47.247,36.341C47.194,36.715 47.123,37.437 47.201,38.018C47.221,38.17 47.252,38.317 47.292,38.456L47.27,38.563C47.095,39.476 47.141,40.489 47.321,41.419C47.149,41.586 46.927,41.83 46.753,42.104C46.497,42.508 46.357,42.958 46.332,43.254C46.288,43.796 46.454,44.233 46.705,44.57C46.873,44.794 47.089,44.99 47.374,45.13C47.325,45.177 47.277,45.222 47.232,45.264C47.173,45.319 47.119,45.366 47.068,45.408C46.696,45.516 46.314,45.686 45.963,45.92C45.361,46.321 45.248,46.784 45.194,46.992C45.161,47.12 45.143,47.244 45.136,47.363C44.999,47.506 44.868,47.649 44.747,47.793C44.102,48.554 43.698,49.348 43.584,50.033C43.557,50.191 43.595,51.216 44.264,51.778L44.281,51.796C44.556,52.09 44.975,52.395 45.684,52.395C46.373,52.395 47.072,52.153 47.71,51.721C48.602,51.348 49.943,50.516 50.606,49.571C51.081,48.895 51.284,48.166 51.196,47.445C51.468,47.315 51.732,47.176 51.883,47.061C52.369,46.691 52.618,46.241 52.718,45.839C52.772,45.624 52.802,45.411 52.809,45.201L53.001,44.969C53.488,44.388 53.764,43.958 54.166,43.312C54.351,43.015 54.542,42.722 54.704,42.412C54.881,42.075 55.046,41.727 55.158,41.363C55.308,40.875 55.353,40.444 55.326,40.068L55.334,40.01C55.891,39.259 56.476,38.118 56.669,37.026C56.874,35.864 56.658,34.769 55.983,33.953C56.244,33.501 56.435,32.965 56.524,32.42C56.655,31.619 56.553,30.821 56.294,30.243C56.5,29.397 56.497,28.528 56.288,27.865C56.26,27.129 56.015,26.447 55.536,25.879C54.861,25.079 53.947,24.876 52.986,25.155C52.255,25.368 51.499,25.979 51.175,26.385C50.883,26.749 50.614,27.322 50.427,27.978Z" style="fill:rgb(0,85,202);"/>
        <path d="M23.819,35.174C24.699,35.271 25.554,35.41 26.338,35.519C26.874,35.593 27.434,35.597 27.994,35.607C28.347,35.688 28.679,35.77 28.977,35.844C29.311,35.928 29.695,35.971 30.082,36.019C29.996,36.249 29.93,36.534 29.907,36.885C29.881,37.278 29.982,37.649 30.175,37.96C29.617,40.171 28.769,42.231 28.174,44.414C27.996,45.066 28.177,45.562 28.442,45.938C28.534,46.068 29.392,47.174 30.74,46.515C30.952,46.411 32.011,45.675 32.135,45.522C32.651,44.882 32.786,44.125 32.937,43.356C33.228,41.881 33.832,40.462 34.008,38.967C34.031,38.773 33.994,38.325 33.927,37.824C34.058,37.097 34.146,36.017 33.962,35.147C33.817,34.46 33.514,33.875 33.093,33.454C32.705,33.066 32.217,32.798 31.665,32.633C31.493,32.503 31.295,32.403 31.076,32.34C30.319,32.124 29.499,32.081 28.68,32.05C27.104,31.708 25.19,31.405 23.74,31.53C22.534,31.416 21.295,31.377 20.117,31.533C18.34,31.768 16.691,32.422 15.369,33.744C14.787,34.326 14.794,34.892 14.826,35.232C14.88,35.804 15.145,36.324 15.774,36.667C15.933,36.754 16.149,36.843 16.43,36.88C16.602,36.903 17.085,36.852 17.298,36.836C17.756,36.801 18.216,36.753 18.663,36.648C19.703,36.403 20.767,36.104 21.806,35.844C22.493,35.673 23.113,35.296 23.819,35.174Z" style="fill:rgb(0,85,202);"/>
        <path d="M16.888,33.205C17.009,33.422 17.136,33.644 17.303,33.867C17.626,34.298 18.034,34.64 18.481,34.944C18.77,35.14 19.104,35.285 19.336,35.555C20.174,36.533 21.079,37.793 21.619,38.862C22.071,39.755 23.163,40.114 24.056,39.662C24.95,39.211 25.309,38.119 24.857,37.225C24.743,36.999 24.616,36.766 24.478,36.529C25.244,36.408 25.875,35.801 25.99,34.994C26.132,34.002 25.442,33.083 24.451,32.941C22.667,32.686 20.908,31.688 19.497,30.614C19.231,30.193 18.951,29.789 18.518,29.399C18.606,29.479 18.762,29.696 18.762,29.696C18.762,29.696 17.591,28.208 16.724,28.208C15.993,28.208 15.412,28.527 15.06,29.252C14.952,29.474 14.828,29.861 14.879,30.361C14.934,30.903 15.348,31.854 15.395,31.921C15.763,32.436 16.355,32.832 16.888,33.205Z" style="fill:rgb(0,85,202);"/>
        <path d="M25.664,22.886C25.428,23.394 25.482,23.813 25.559,24.104C25.692,24.611 25.992,25.009 26.499,25.264C26.667,25.348 27.251,25.66 28.069,25.295C28.18,25.245 28.549,25.031 28.852,24.79C28.918,24.798 28.986,24.801 29.054,24.801C30.226,24.801 30.574,24.011 30.645,23.888C30.885,23.47 30.944,23.032 30.839,22.577C30.772,22.285 30.624,21.917 30.231,21.59C30.158,21.529 29.91,21.307 29.426,21.204C29.359,21.189 29.224,21.174 29.061,21.161C28.905,21.022 28.722,20.908 28.516,20.828C27.298,20.353 26.616,20.834 26.321,21.078C25.855,21.464 25.584,22.006 25.64,22.705C25.644,22.762 25.652,22.823 25.664,22.886ZM26.95,24.611L26.967,24.62L26.936,24.602L26.95,24.611ZM27.608,21.89L27.599,21.904L27.6,21.902L27.65,21.839L27.644,21.838L27.608,21.89Z" style="fill:rgb(0,85,202);"/>
        <path d="M29.139,24.293C29.223,24.578 29.333,24.939 29.379,25.028C29.857,25.955 30.647,26.034 31.012,26.034C31.111,26.034 31.224,26.014 31.342,25.982L31.787,26.33C31.899,26.529 32.048,26.707 32.231,26.862C32.532,27.118 33.02,27.431 33.907,27.328C34.901,27.211 35.614,26.31 35.498,25.315C35.462,25.012 35.354,24.734 35.191,24.499C35.188,24.459 35.183,24.424 35.176,24.394C35.027,23.779 34.67,23.309 34.007,23.043C33.77,22.949 33.475,22.888 33.155,22.881C32.885,22.601 32.578,22.404 32.285,22.298L32.239,22.282C32.108,22.083 31.933,21.911 31.753,21.769C31.547,21.377 31.197,21.059 30.747,20.902C29.801,20.572 28.766,21.072 28.436,22.017C28.176,22.76 28.316,23.237 28.449,23.557C28.548,23.796 28.851,24.072 29.139,24.293ZM30.847,25.595L30.45,25.286C30.45,25.286 30.658,25.468 30.847,25.595ZM29.439,24.51C29.593,24.633 29.742,24.708 29.742,24.708C29.742,24.708 29.614,24.631 29.439,24.51Z" style="fill:rgb(0,85,202);"/>
        <path d="M41.732,43.713L41.224,43.572C40.887,43.48 40.588,43.44 40.369,43.44C39.367,43.44 38.555,44.253 38.555,45.254C38.555,46.209 39.294,46.992 40.23,47.062C40.391,47.109 41.653,47.473 42.191,47.459C42.8,47.444 43.29,47.233 43.654,46.92C44.52,46.177 45.114,45.177 45.696,44.255C46.035,43.718 46.276,43.097 47.065,43.23C48.053,43.397 48.99,42.731 49.157,41.744C49.324,40.757 48.658,39.82 47.67,39.653C45.372,39.264 44.099,40.227 43.063,41.667C42.614,42.29 42.261,43.074 41.732,43.713Z" style="fill:rgb(0,85,202);"/>
        <path d="M28.174,26.501L28.18,26.513C27.695,27.365 27.848,28.143 28.37,28.886L28.399,28.925L28.064,29.088C27.017,29.591 26.204,30.296 25.882,31.262C25.868,31.305 25.855,31.348 25.844,31.389C25.773,31.431 25.717,31.468 25.679,31.497C24.245,32.588 25.11,33.939 25.45,34.279C25.693,34.521 26.019,34.725 26.416,34.856C26.573,35.002 26.763,35.13 26.987,35.234C27.599,35.52 28.952,35.464 29.071,35.448C30.08,35.316 30.927,34.983 31.717,34.44C32.19,34.291 32.923,34.022 33.327,33.764C33.877,33.522 34.422,33.148 34.718,32.783C35.073,32.346 35.228,31.878 35.233,31.426C35.572,30.758 35.598,30.045 35.383,29.501C35.273,29.223 35.133,29.006 34.978,28.835L34.976,28.829L34.875,28.618C34.966,28.294 35.17,27.525 35.204,27.098C35.267,26.302 35.072,25.586 34.564,24.996C34.1,24.457 33.638,24.391 33.423,24.359L33.387,24.355C33.475,24.091 33.503,23.803 33.458,23.509C33.306,22.52 32.379,21.84 31.389,21.992C31.056,22.043 29.049,22.089 28.257,22.377C27.11,22.793 26.779,23.666 26.779,24.327C26.779,25.241 27.252,26.028 28.174,26.501Z" style="fill:rgb(0,85,202);"/>
    </g>
</svg>
